<?xml version="1.0" encoding="utf-8"?>
<!-- Generator: Adobe Illustrator 24.0.0, SVG Export Plug-In . SVG Version: 6.00 Build 0)  -->
<svg version="1.1" id="Layer_1" xmlns="http://www.w3.org/2000/svg" xmlns:xlink="http://www.w3.org/1999/xlink" x="0px" y="0px"
	 viewBox="0 0 1024 1024" style="enable-background:new 0 0 1024 1024;" xml:space="preserve">
<style type="text/css">
	.st0{fill:#5865F2;}
	.st1{fill:#FFFFFF;}
</style>
<g>
	<path class="st0" d="M862,962H162c-55.23,0-100-44.77-100-100V162c0-55.23,44.77-100,100-100h700c55.23,0,100,44.77,100,100v700
		C962,917.23,917.23,962,862,962z"/>
</g>
<g id="图层_2">
	<g id="Discord_Logos">
		<g id="Discord_Logo_-_Large_-_White">
			<path class="st1" d="M719.98,322.94c-39.46-18.07-81.11-30.88-123.9-38.12c-5.86,10.47-11.15,21.24-15.87,32.26
				c-45.58-6.87-91.93-6.87-137.51,0c-4.72-11.03-10.02-21.79-15.87-32.26c-42.82,7.3-84.5,20.15-124,38.22
				c-78.41,116.02-99.67,229.15-89.04,340.68l0,0c45.92,33.93,97.32,59.73,151.96,76.29c12.3-16.55,23.19-34.1,32.55-52.48
				c-17.77-6.64-34.92-14.82-51.25-24.47c4.3-3.12,8.5-6.33,12.57-9.45c96.22,45.25,207.61,45.25,303.83,0
				c4.11,3.35,8.31,6.57,12.57,9.45c-16.36,9.66-33.55,17.86-51.35,24.52c9.34,18.37,20.23,35.91,32.55,52.43
				c54.69-16.49,106.13-42.28,152.06-76.24l0,0C821.73,534.42,787.96,422.33,719.98,322.94z M411.76,595.12
				c-29.62,0-54.09-26.88-54.09-59.94c0-33.07,23.62-60.18,53.99-60.18c30.37,0,54.65,27.11,54.13,60.18
				C465.28,568.24,441.94,595.12,411.76,595.12z M611.29,595.12c-29.67,0-54.04-26.88-54.04-59.94c0-33.07,23.62-60.18,54.04-60.18
				c30.42,0,54.51,27.11,53.99,60.18C664.76,568.24,641.47,595.12,611.29,595.12z"/>
		</g>
	</g>
</g>
</svg>
