<?xml version="1.0" encoding="utf-8"?>
<!-- Generator: Adobe Illustrator 24.0.0, SVG Export Plug-In . SVG Version: 6.00 Build 0)  -->
<svg version="1.1" id="Layer_1" xmlns="http://www.w3.org/2000/svg" xmlns:xlink="http://www.w3.org/1999/xlink" x="0px" y="0px"
	 viewBox="0 0 1024 1024" style="enable-background:new 0 0 1024 1024;" xml:space="preserve">
<style type="text/css">
	.st0{fill:#171515;}
	.st1{fill-rule:evenodd;clip-rule:evenodd;fill:#FFFFFF;}
	.st2{fill:#FFFFFF;}
</style>
<g>
	<path class="st0" d="M862,962H162c-55.23,0-100-44.77-100-100V162c0-55.23,44.77-100,100-100h700c55.23,0,100,44.77,100,100v700
		C962,917.23,917.23,962,862,962z"/>
</g>
<g>
	<path class="st1" d="M512,218.96c-165.92,0-300.46,134.51-300.46,300.46c0,132.75,86.09,245.37,205.47,285.11
		c15.01,2.78,20.53-6.52,20.53-14.46c0-7.16-0.28-30.83-0.41-55.94c-83.59,18.18-101.23-35.45-101.23-35.45
		c-13.67-34.73-33.36-43.96-33.36-43.96c-27.26-18.65,2.05-18.26,2.05-18.26c30.17,2.12,46.06,30.97,46.06,30.97
		c26.8,45.93,70.29,32.65,87.44,24.97c2.7-19.42,10.48-32.68,19.08-40.18c-66.74-7.59-136.89-33.36-136.89-148.49
		c0-32.8,11.74-59.61,30.96-80.65c-3.12-7.57-13.41-38.13,2.91-79.52c0,0,25.23-8.07,82.64,30.8c23.97-6.66,49.67-10,75.21-10.11
		c25.53,0.12,51.26,3.45,75.27,10.11c57.35-38.87,82.54-30.8,82.54-30.8c16.36,41.39,6.07,71.95,2.95,79.52
		c19.27,21.04,30.92,47.85,30.92,80.65c0,115.4-70.29,140.81-137.2,148.25c10.78,9.32,20.38,27.61,20.38,55.64
		c0,40.2-0.34,72.56-0.34,82.46c0,8,5.41,17.37,20.64,14.42c119.32-39.78,205.3-152.36,205.3-285.07
		C812.46,353.47,677.94,218.96,512,218.96z"/>
	<path class="st2" d="M325.34,650.35c-0.66,1.5-3.01,1.94-5.15,0.92c-2.18-0.98-3.4-3.02-2.7-4.51c0.65-1.54,3-1.96,5.17-0.94
		C324.85,646.8,326.09,648.86,325.34,650.35L325.34,650.35z M321.64,647.61"/>
	<path class="st2" d="M337.51,663.93c-1.43,1.33-4.24,0.71-6.14-1.39c-1.97-2.09-2.33-4.9-0.88-6.24c1.48-1.33,4.19-0.7,6.16,1.39
		C338.62,659.8,339.01,662.58,337.51,663.93L337.51,663.93z M334.65,660.85"/>
	<path class="st2" d="M349.36,681.23c-1.84,1.28-4.85,0.08-6.71-2.59c-1.84-2.67-1.84-5.88,0.04-7.16c1.86-1.28,4.83-0.13,6.72,2.52
		C351.24,676.72,351.24,679.92,349.36,681.23L349.36,681.23z M349.36,681.23"/>
	<path class="st2" d="M365.59,697.95c-1.65,1.82-5.16,1.33-7.72-1.15c-2.63-2.42-3.36-5.86-1.71-7.68c1.67-1.82,5.2-1.31,7.78,1.15
		C366.55,692.69,367.34,696.15,365.59,697.95L365.59,697.95z M365.59,697.95"/>
	<path class="st2" d="M387.98,707.66c-0.73,2.35-4.11,3.42-7.51,2.42c-3.4-1.03-5.62-3.79-4.94-6.16c0.7-2.37,4.1-3.48,7.53-2.42
		C386.46,702.53,388.68,705.26,387.98,707.66L387.98,707.66z M387.98,707.66"/>
	<path class="st2" d="M412.57,709.46c0.08,2.48-2.8,4.53-6.38,4.58c-3.59,0.08-6.5-1.92-6.54-4.36c0-2.5,2.82-4.53,6.41-4.6
		C409.64,705,412.57,707,412.57,709.46L412.57,709.46z M412.57,709.46"/>
	<path class="st2" d="M435.45,705.56c0.43,2.42-2.06,4.9-5.6,5.56c-3.49,0.64-6.71-0.85-7.16-3.25c-0.43-2.48,2.09-4.96,5.58-5.6
		C431.81,701.65,435,703.1,435.45,705.56L435.45,705.56z M435.45,705.56"/>
</g>
</svg>
