<?xml version="1.0" encoding="UTF-8"?>
<svg xmlns="http://www.w3.org/2000/svg" xmlns:xlink="http://www.w3.org/1999/xlink" viewBox="0 0 34 34" width="34px" height="34px">
<g id="surface49866358">
<path style=" stroke:none;fill-rule:nonzero;fill:rgb(100%,100%,100%);fill-opacity:1;" d="M 6.800781 4.535156 C 5.546875 4.535156 4.535156 5.546875 4.535156 6.800781 L 4.535156 27.199219 C 4.535156 28.453125 5.546875 29.464844 6.800781 29.464844 L 27.199219 29.464844 C 28.453125 29.464844 29.464844 28.453125 29.464844 27.199219 L 29.464844 6.800781 C 29.464844 5.546875 28.453125 4.535156 27.199219 4.535156 Z M 22.28125 10.480469 C 22.988281 10.480469 23.46875 10.929688 23.46875 11.542969 C 23.46875 12.15625 22.988281 12.605469 22.28125 12.605469 C 21.585938 12.605469 21.097656 12.15625 21.097656 11.542969 C 21.097656 10.929688 21.585938 10.480469 22.28125 10.480469 Z M 13.367188 11.28125 L 15.613281 11.28125 L 19.585938 22.460938 L 17.441406 22.460938 L 16.496094 19.601562 L 12.382812 19.601562 L 11.417969 22.460938 L 9.398438 22.460938 Z M 14.378906 13.410156 L 12.847656 18.019531 L 16.03125 18.019531 L 14.511719 13.410156 Z M 21.328125 13.984375 L 23.242188 13.984375 L 23.242188 22.460938 L 21.328125 22.460938 Z M 21.328125 13.984375 "/>
</g>
</svg>
