<?xml version="1.0" encoding="utf-8"?>
<!-- Generator: Adobe Illustrator 24.0.0, SVG Export Plug-In . SVG Version: 6.00 Build 0)  -->
<svg version="1.1" id="Layer_1" xmlns="http://www.w3.org/2000/svg" xmlns:xlink="http://www.w3.org/1999/xlink" x="0px" y="0px"
	 viewBox="0 0 1024 1024" style="enable-background:new 0 0 1024 1024;" xml:space="preserve">
<style type="text/css">
	.st0{fill:#1D9BF0;}
	.st1{fill:#FFFFFF;}
</style>
<g>
	<path class="st0" d="M862,962H162c-55.23,0-100-44.77-100-100V162c0-55.23,44.77-100,100-100h700c55.23,0,100,44.77,100,100v700
		C962,917.23,917.23,962,862,962z"/>
</g>
<g>
	<path class="st1" d="M737.93,396.09c0.35,5.01,0.35,10.02,0.35,15.07c0,154.04-117.26,331.69-331.69,331.69
		v-0.09c-63.34,0.09-125.37-18.05-178.69-52.26c9.21,1.11,18.47,1.66,27.75,1.69c52.49,0.05,103.48-17.57,144.78-50
		c-49.88-0.95-93.63-33.47-108.91-80.95c17.47,3.37,35.48,2.68,52.63-2.01c-54.38-10.99-93.51-58.77-93.51-114.26
		c0-0.51,0-0.99,0-1.48c16.2,9.03,34.35,14.03,52.91,14.59c-51.22-34.23-67.01-102.38-36.08-155.65
		c59.19,72.83,146.51,117.1,240.25,121.79c-9.39-40.49,3.44-82.92,33.73-111.38c46.95-44.14,120.8-41.87,164.93,5.06
		c26.11-5.15,51.13-14.73,74.03-28.3c-8.7,26.98-26.92,49.91-51.25,64.47c23.11-2.72,45.68-8.91,66.94-18.35
		C780.45,359.16,760.74,379.58,737.93,396.09z"/>
</g>
</svg>
