<?xml version="1.0" encoding="UTF-8"?>
<svg xmlns="http://www.w3.org/2000/svg" xmlns:xlink="http://www.w3.org/1999/xlink" viewBox="0 0 34 34">
<g id="surface49727999">
<path style=" stroke:none;fill-rule:nonzero;fill:rgb(100%,100%,100%);fill-opacity:1;" d="M 31.167969 7.871094 L 31.167969 26.128906 C 31.167969 27.03125 30.605469 27.832031 29.765625 28.128906 L 23.515625 31.058594 L 24.082031 23.375 L 24.082031 10.625 L 23.515625 2.941406 L 29.765625 5.871094 C 30.605469 6.167969 31.167969 6.96875 31.167969 7.871094 Z M 31.167969 7.871094 "/>
<path style=" stroke:none;fill-rule:nonzero;fill:rgb(100%,100%,100%);fill-opacity:1;" d="M 3.128906 23.953125 L 5.367188 25.332031 C 5.886719 25.644531 6.542969 25.59375 7.007812 25.203125 L 24.082031 11.289062 L 24.082031 3.792969 C 24.082031 2.941406 23.035156 2.546875 22.472656 3.183594 L 6.375 21.160156 Z M 3.128906 23.953125 "/>
<path style=" stroke:none;fill-rule:nonzero;fill:rgb(100%,100%,100%);fill-opacity:1;" d="M 3.128906 10.046875 L 5.367188 8.667969 C 5.886719 8.355469 6.542969 8.40625 7.007812 8.796875 L 24.082031 22.710938 L 24.082031 30.210938 C 24.082031 31.058594 23.035156 31.453125 22.472656 30.816406 L 6.375 12.839844 Z M 3.128906 10.046875 "/>
<path style=" stroke:none;fill-rule:nonzero;fill:rgb(100%,100%,100%);fill-opacity:1;" d="M 6.375 12.84375 L 6.375 21.15625 L 4.109375 23.808594 C 3.699219 24.34375 2.832031 24.054688 2.832031 23.375 L 2.832031 10.625 C 2.832031 9.945312 3.699219 9.65625 4.109375 10.191406 Z M 6.375 12.84375 "/>
</g>
</svg>
