<?xml version="1.0" encoding="UTF-8"?>
<svg xmlns="http://www.w3.org/2000/svg" xmlns:xlink="http://www.w3.org/1999/xlink" viewBox="0 0 34 34" width="34px" height="34px">
<g id="surface49678886">
<path style=" stroke:none;fill-rule:nonzero;fill:rgb(100%,100%,100%);fill-opacity:1;" d="M 31.167969 7.871094 L 31.167969 26.128906 C 31.167969 27.03125 30.605469 27.832031 29.765625 28.128906 L 23.515625 31.058594 L 24.082031 23.375 L 24.082031 10.625 L 23.515625 2.941406 L 29.765625 5.871094 C 30.605469 6.167969 31.167969 6.96875 31.167969 7.871094 Z M 31.167969 7.871094 "/>
<path style=" stroke:none;fill-rule:nonzero;fill:rgb(100%,100%,100%);fill-opacity:1;" d="M 6.375 24.007812 L 24.082031 10.625 L 24.082031 3.792969 C 24.082031 2.941406 23.035156 2.546875 22.472656 3.183594 L 3.300781 20.710938 C 2.660156 21.300781 2.699219 22.316406 3.375 22.859375 C 3.375 22.859375 4.3125 23.730469 4.652344 23.972656 C 5.171875 24.34375 5.859375 24.386719 6.375 24.007812 Z M 6.375 24.007812 "/>
<path style=" stroke:none;fill-rule:nonzero;fill:rgb(100%,100%,100%);fill-opacity:1;" d="M 6.375 9.992188 L 24.082031 23.375 L 24.082031 30.207031 C 24.082031 31.058594 23.035156 31.453125 22.472656 30.816406 L 3.300781 13.289062 C 2.660156 12.699219 2.699219 11.683594 3.375 11.140625 C 3.375 11.140625 4.3125 10.269531 4.652344 10.027344 C 5.171875 9.65625 5.859375 9.613281 6.375 9.992188 Z M 6.375 9.992188 "/>
</g>
</svg>
